HIERARCHY
ROOT Hips
{
  OFFSET 3.13124 94.3669 -3.18751
  CHANNELS  6 Xposition Yposition Zposition Zrotation Xrotation Yrotation
  JOINT LeftUpLeg
  {
    OFFSET 8.64259 1.95398 -2.38835
    CHANNELS 3 Zrotation Xrotation Yrotation
    JOINT LeftLeg
    {
      OFFSET 43.7702 0 0
      CHANNELS 3 Zrotation Xrotation Yrotation
      JOINT LeftFoot
      {
        OFFSET 40.6238 0 0
        CHANNELS 3 Zrotation Xrotation Yrotation
        JOINT LeftToeBase
        {
          OFFSET 12.7242 0 0
          CHANNELS 3 Zrotation Xrotation Yrotation
          End Site
          {
            OFFSET 0 0 0
          }
        }
      }
    }
  }
  JOINT RightUpLeg
  {
    OFFSET -8.2249 1.95398 -2.59336
    CHANNELS 3 Zrotation Xrotation Yrotation
    JOINT RightLeg
    {
      OFFSET 43.5653 0 0
      CHANNELS 3 Zrotation Xrotation Yrotation
      JOINT RightFoot
      {
        OFFSET 40.6238 0 0
        CHANNELS 3 Zrotation Xrotation Yrotation
        JOINT RightToeBase
        {
          OFFSET 12.7242 0 0
          CHANNELS 3 Zrotation Xrotation Yrotation
          End Site
          {
            OFFSET 0 0 0
          }
        }
      }
    }
  }
  JOINT Spine
  {
    OFFSET 0.165834 0.87714 6.61349
    CHANNELS 3 Zrotation Xrotation Yrotation
    JOINT Spine1
    {
      OFFSET 7.38962 1.71661e-005 0
      CHANNELS 3 Zrotation Xrotation Yrotation
      JOINT Spine2
      {
        OFFSET 11.9445 1.14441e-005 0
        CHANNELS 3 Zrotation Xrotation Yrotation
        JOINT Spine3
        {
          OFFSET 14.7254 4.19617e-005 0
          CHANNELS 3 Zrotation Xrotation Yrotation
          JOINT Spine4
          {
            OFFSET 10.9679 0 0
            CHANNELS 3 Zrotation Xrotation Yrotation
            JOINT RightShoulder
            {
              OFFSET 2.46616 -1.6653 3.69651
              CHANNELS 3 Zrotation Xrotation Yrotation
              JOINT RightArm
              {
                OFFSET 13.0012 0 0
                CHANNELS 3 Zrotation Xrotation Yrotation
                JOINT RightForeArm
                {
                  OFFSET 28.7848 1.52588e-005 0
                  CHANNELS 3 Zrotation Xrotation Yrotation
                  JOINT RightHand
                  {
                    OFFSET 26.5688 1.52588e-005 0
                    CHANNELS 3 Zrotation Xrotation Yrotation
                    End Site
                    {
                      OFFSET 0 0 0
                    }
                  }
                }
              }
            }
            JOINT LeftShoulder
            {
              OFFSET 2.38034 -1.29275 -3.75231
              CHANNELS 3 Zrotation Xrotation Yrotation
              JOINT LeftArm
              {
                OFFSET 16.3182 6.10352e-005 0
                CHANNELS 3 Zrotation Xrotation Yrotation
                JOINT LeftForeArm
                {
                  OFFSET 27.0901 0 0
                  CHANNELS 3 Zrotation Xrotation Yrotation
                  JOINT LeftHand
                  {
                    OFFSET 24.5451 1.52588e-005 0
                    CHANNELS 3 Zrotation Xrotation Yrotation
                    End Site
                    {
                      OFFSET 0 0 0
                    }
                  }
                }
              }
            }
            JOINT Neck
            {
              OFFSET 5.0226 -0.0266342 0
              CHANNELS 3 Zrotation Xrotation Yrotation
              JOINT Head
              {
                OFFSET 6.69363 2.86102e-005 0
                CHANNELS 3 Zrotation Xrotation Yrotation
                End Site
                {
                  OFFSET 0 0 0
                }
              }
            }
          }
        }
      }
    }
  }
}
MOTION
Frames:	7
Frame Time:	0.0333333
29.6488 92.8931 -3.59554 -86.8481 -68.7419 -88.774 -171.95 3.31592 87.4357 -13.563 -0.641491 -1.22924 67.0054 1.69424 0.802301 28.7808 6.4672e-006 1.49858e-005 173.399 3.43456 76.9958 -3.83957 -1.78254 -0.101277 61.4326 6.10572 3.76243 28.7808 1.66687e-005 2.33713e-005 0.244448 6.60438 -89.3064 13.6739 0.583279 -0.324104 2.00305 0.568418 -0.349477 -20.533 0.653859 -0.133719 -0.520419 0.653822 -0.133764 77.8713 -56.0672 -116.551 23.5738 16.8161 7.26258 14.3123 19.4842 -45.9902 8.32398 2.40304 25.2637 -117.967 -67.1466 47.833 -12.3974 -20.4745 7.28441 -7.66 -12.1471 -42.7879 -0.328895 0.250856 14.5795 24.5268 4.43639 4.05217 39.3394 7.19478 11.4903 
29.7577 92.8923 -3.58956 -86.7494 -68.6898 -88.5962 -171.94 3.47043 87.451 -13.7686 -0.766678 -1.2441 67.0037 1.47849 0.68552 28.7808 6.4672e-006 1.49858e-005 173.432 3.50534 77.0294 -3.8387 -1.74247 -0.0990806 61.2785 5.91531 3.66375 28.7808 1.66687e-005 2.33713e-005 0.235331 6.6037 -89.2828 13.675 0.573432 -0.315788 2.00413 0.558972 -0.340728 -20.532 0.641833 -0.128819 -0.51932 0.641804 -0.128866 77.6568 -56.1747 -116.804 23.5757 16.8144 7.21229 14.2925 19.4466 -46.0084 8.24598 2.3676 25.0931 -117.501 -67.0569 48.3413 -12.4482 -20.4367 7.29286 -7.25921 -11.7127 -42.6559 -0.484602 0.222589 14.4615 24.7133 4.43074 3.66399 39.2074 7.39459 11.7121 
29.8236 92.8607 -3.59262 -86.5661 -68.5947 -88.4206 -171.946 3.59128 87.4086 -13.8626 -0.884943 -1.2755 67.1158 1.5894 0.745149 28.7808 6.4672e-006 1.49858e-005 173.44 3.63166 77.0037 -3.83881 -1.98858 -0.112704 61.3773 6.1637 3.80336 28.7808 1.66687e-005 2.33713e-005 0.233874 6.59284 -89.2652 13.6971 0.576068 -0.323886 2.02622 0.561252 -0.348934 -20.5099 0.646726 -0.135846 -0.497211 0.646703 -0.135857 77.6837 -56.1174 -116.788 23.6669 16.7526 7.12993 14.1875 19.3676 -45.9374 7.97977 2.29178 25.0537 -117.564 -67.0724 48.2748 -12.3099 -20.5204 7.37286 -7.35239 -11.7922 -42.7414 -0.606629 0.205648 14.6724 24.6569 4.44896 3.87325 39.2772 7.29501 11.5838 
29.842 92.8551 -3.61412 -86.3671 -68.4712 -88.197 -171.915 3.71337 87.4444 -13.9337 -0.958372 -1.32187 67.1404 1.63888 0.771208 28.7808 6.4672e-006 1.49858e-005 173.472 3.75741 77.0437 -3.83863 -2.16308 -0.122361 61.337 6.18822 3.82133 28.7808 1.66687e-005 2.33713e-005 0.232799 6.58695 -89.2523 13.709 0.582001 -0.309344 2.03814 0.567825 -0.33466 -20.498 0.648138 -0.120116 -0.485327 0.648119 -0.12012 77.5856 -56.1908 -116.895 23.6651 16.7518 7.04949 14.1668 19.342 -45.9405 7.95209 2.28116 25.0101 -117.379 -67.042 48.4785 -12.3078 -20.5062 7.23239 -7.19755 -11.7198 -42.4453 -0.364379 0.242071 14.4372 24.7719 4.43136 3.63383 39.1595 7.41832 11.7596 
29.8287 92.8567 -3.64571 -86.1708 -68.3262 -88.0121 -171.927 3.77833 87.4518 -13.8888 -1.04341 -1.32753 67.1469 1.54926 0.7247 28.7808 6.4672e-006 1.49858e-005 173.491 3.89541 77.0718 -3.83833 -2.31805 -0.130905 61.2881 6.11923 3.78548 28.7808 1.66687e-005 2.33713e-005 0.234135 6.5766 -89.2551 13.7297 0.588314 -0.302602 2.05884 0.574412 -0.328212 -20.4773 0.653621 -0.11179 -0.464673 0.653605 -0.111801 77.6002 -56.1578 -116.889 23.6799 16.7422 7.01851 14.2376 19.384 -45.9971 7.88576 2.2641 25.0227 -117.378 -67.0721 48.4932 -12.2 -20.57 7.26101 -7.22992 -11.7615 -42.44 -0.462297 0.226957 14.5036 24.7687 4.44274 3.72844 39.1473 7.38181 11.73 
29.7746 92.8692 -3.69511 -85.9561 -68.1627 -87.7922 -171.924 3.85682 87.5042 -13.8382 -1.28652 -1.37243 67.105 1.50028 0.700449 28.7808 6.4672e-006 1.49858e-005 173.535 4.03465 77.1511 -3.83738 -2.50013 -0.140978 61.2069 6.0955 3.78016 28.7808 1.66687e-005 2.33713e-005 0.235654 6.56844 -89.2582 13.746 0.596588 -0.287234 2.0751 0.58339 -0.313196 -20.4611 0.659431 -0.0947494 -0.448441 0.659418 -0.0947751 77.5866 -56.1772 -116.9 23.7298 16.7071 6.93954 14.1915 19.3478 -45.9745 7.78047 2.22759 24.9178 -117.281 -67.0614 48.6032 -12.2568 -20.5109 7.07517 -7.04897 -11.7044 -42.0167 -0.0856481 0.280275 14.049 24.8407 4.43685 3.62094 39.1007 7.45315 11.8442 
29.6677 92.8798 -3.75621 -85.8318 -67.9854 -87.6449 -171.943 3.85244 87.5789 -13.6886 -1.45611 -1.32322 67.0997 1.3777 0.638075 28.7808 6.4672e-006 1.49858e-005 173.598 4.12863 77.2721 -3.83577 -2.66144 -0.149812 61.2005 5.98948 3.71632 28.7808 1.66687e-005 2.33713e-005 0.238307 6.56052 -89.2666 13.7618 0.602906 -0.289845 2.09094 0.589433 -0.316095 -20.4453 0.661892 -0.0953093 -0.432618 0.66188 -0.0953232 77.6147 -56.1308 -116.879 23.7542 16.6941 6.96404 14.2234 19.3422 -46.0347 7.70347 2.19492 24.7649 -117.35 -67.0921 48.5356 -12.082 -20.6278 7.35885 -7.15207 -11.7023 -42.3474 -0.609883 0.197743 14.2093 24.7902 4.43371 3.72223 39.1633 7.42007 11.8367 
